<svg fill="#c6ff01" stroke="#c6ff01" xmlns="http://www.w3.org/2000/svg" viewBox="0 0 260.37 87.75"><title>Asset 5</title><g id="Layer_2" data-name="Layer 2"><g id="Layer_1-2" data-name="Layer 1"><path d="M259.37,81.93,230.19,52.75a3.41,3.41,0,0,0-2.41-1h-27.2a3.41,3.41,0,0,1-2.41-5.82l9.09-9.09,31-31A3.41,3.41,0,0,0,235.87,0H194.6a3.4,3.4,0,0,0-2.41,1L176.47,16.72a3.41,3.41,0,0,1-4.82,0L155.94,1a3.41,3.41,0,0,0-2.41-1H91.16a3.41,3.41,0,0,0-2.4,5.82L117.94,35a3.4,3.4,0,0,0,2.41,1h36.84l-.84.84L141.44,51.75l-8.84,8.84a3.41,3.41,0,0,1-4.82,0l-8.84-8.84L104,36.84,68.19,1a3.41,3.41,0,0,0-2.41-1H24.5a3.41,3.41,0,0,0-2.41,5.82l31,31,9.1,9.09a3.41,3.41,0,0,1-2.41,5.82H32.6a3.4,3.4,0,0,0-2.41,1L1,81.93a3.41,3.41,0,0,0,2.4,5.82H65.78a3.41,3.41,0,0,0,2.41-1l15-15a3.41,3.41,0,0,1,4.82,0l15,15a3.4,3.4,0,0,0,2.41,1h49.5a3.41,3.41,0,0,0,2.41-1l15-15a3.41,3.41,0,0,1,4.82,0l15,15a3.4,3.4,0,0,0,2.41,1H257A3.41,3.41,0,0,0,259.37,81.93Z"/></g></g></svg>